<svg width="26" height="25" viewBox="0 0 26 25" fill="#9E9E9E" xmlns="http://www.w3.org/2000/svg">
<path fill-rule="evenodd" clip-rule="evenodd" d="M13.2912 1.93196C7.49418 1.93196 2.77811 6.64803 2.77811 12.4451C2.77811 18.2422 7.49418 22.9582 13.2912 22.9582C19.0883 22.9582 23.8044 18.2422 23.8044 12.4451C23.8044 6.64803 19.0883 1.93196 13.2912 1.93196ZM13.2912 24.8134C6.47131 24.8134 0.922852 19.265 0.922852 12.4451C0.922852 5.62512 6.47131 0.0766602 13.2912 0.0766602C20.1112 0.0766602 25.6596 5.62512 25.6596 12.4451C25.6596 19.265 20.1112 24.8134 13.2912 24.8134Z" />
<path fill-rule="evenodd" clip-rule="evenodd" d="M17.5348 17.012C17.3728 17.012 17.2096 16.97 17.0599 16.8821L12.397 14.1005C12.1175 13.9323 11.9443 13.6293 11.9443 13.3027V7.30654C11.9443 6.79448 12.3599 6.37891 12.872 6.37891C13.3853 6.37891 13.7996 6.79448 13.7996 7.30654V12.7758L18.011 15.2866C18.4501 15.5501 18.5948 16.119 18.3326 16.5593C18.1582 16.85 17.8502 17.012 17.5348 17.012Z"/>
</svg>
