<svg width="20" height="21" viewBox="0 0 20 21" fill="none" xmlns="http://www.w3.org/2000/svg">
<g clip-path="url(#clip0_214_7)">
<path fill-rule="evenodd" clip-rule="evenodd" d="M19.6 11.0248C19.6 10.3157 19.5364 9.63385 19.4182 8.97931H10V12.8475H15.3818C15.15 14.0975 14.4455 15.1566 13.3864 15.8657V18.3748H16.6182C18.5091 16.6339 19.6 14.0702 19.6 11.0248Z" fill="#4285F4"/>
<path fill-rule="evenodd" clip-rule="evenodd" d="M10 20.7974C12.7 20.7974 14.9636 19.902 16.6182 18.3747L13.3864 15.8656C12.4909 16.4656 11.3455 16.8202 10 16.8202C7.39546 16.8202 5.19091 15.0611 4.40455 12.6974H1.06364V15.2884C2.7091 18.5565 6.09091 20.7974 10 20.7974Z" fill="#34A853"/>
<path fill-rule="evenodd" clip-rule="evenodd" d="M4.40455 12.6975C4.20455 12.0975 4.09091 11.4566 4.09091 10.7975C4.09091 10.1384 4.20455 9.49749 4.40455 8.89749V6.30658H1.06364C0.386364 7.65658 0 9.18385 0 10.7975C0 12.4111 0.386364 13.9384 1.06364 15.2884L4.40455 12.6975Z" fill="#FBBC05"/>
<path fill-rule="evenodd" clip-rule="evenodd" d="M10 4.77476C11.4682 4.77476 12.7864 5.2793 13.8227 6.27021L16.6909 3.40203C14.9591 1.78839 12.6955 0.797485 10 0.797485C6.09091 0.797485 2.7091 3.03839 1.06364 6.30658L4.40455 8.89749C5.19091 6.53385 7.39546 4.77476 10 4.77476Z" fill="#EA4335"/>
</g>
<defs>
<clipPath id="clip0_214_7">
<rect width="20" height="20" fill="white" transform="translate(0 0.797485)"/>
</clipPath>
</defs>
</svg>
